<?xml version="1.0" standalone="no"?>
<svg viewBox="0 0 200 200" xmlns="http://www.w3.org/2000/svg">
  <path fill="#A7F0BA" d="M47.4,-72.4C62.6,-64.1,76.7,-52.8,79.7,-38.6C82.6,-24.5,74.3,-7.5,68.4,7.4C62.5,22.3,59,35.2,51.7,46.4C44.5,57.6,33.5,67.2,20.7,71.4C7.9,75.7,-6.8,74.5,-18.9,68.9C-30.9,63.2,-40.3,53.1,-48.7,42.6C-57.1,32.1,-64.6,21.2,-66.8,9.3C-69,-2.7,-65.9,-15.7,-60.1,-27.1C-54.3,-38.5,-45.8,-48.3,-35.3,-58.7C-24.9,-69.1,-12.4,-80.2,1.9,-83.1C16.1,-86,32.3,-80.7,47.4,-72.4Z" transform="translate(100 100)" />
</svg>
