<?xml version="1.0" standalone="no"?>
<svg viewBox="0 0 200 200" xmlns="http://www.w3.org/2000/svg">
  <path fill="#0F62FE" d="M40.3,-60.9C52.8,-54.6,64,-44.5,69,-32C73.9,-19.5,72.6,-4.6,70.5,10.1C68.4,24.9,65.5,39.5,57.3,50.3C49,61.1,35.5,68.1,22,69.6C8.5,71.1,-5.1,67.2,-18.1,62.8C-31.1,58.4,-43.5,53.5,-53.9,44.8C-64.3,36.2,-72.6,23.9,-77,9.6C-81.4,-4.8,-81.9,-21.2,-75.2,-33.7C-68.5,-46.1,-54.5,-54.6,-40.8,-60.3C-27,-66,-13.5,-68.9,0.2,-69.2C13.9,-69.5,27.8,-67.1,40.3,-60.9Z" transform="translate(100 100)" />
</svg>
